<?xml version="1.0" encoding="UTF-8"?>
<svg width="100px" height="101px" viewBox="0 0 100 101" version="1.1" xmlns="http://www.w3.org/2000/svg" xmlns:xlink="http://www.w3.org/1999/xlink">
    <!-- Generator: Sketch 44.1 (41455) - http://www.bohemiancoding.com/sketch -->
    <title>Group</title>
    <desc>Created with Sketch.</desc>
    <defs></defs>
    <g id="Page-1" stroke="none" stroke-width="1" fill="none" fill-rule="evenodd">
        <g id="Desktop-HD" transform="translate(-1129.000000, -1526.000000)" fill="#FFFFFF">
            <g id="Group" transform="translate(1129.000000, 1526.000000)">
                <path d="M3.81928571,48.8169978 C6.57313187,46.7975497 25.6390659,32.9826262 29.0747802,30.7694568 C40.9176374,23.1293311 43.6995055,20.8985005 47.7258791,23.6271563 C50.9643407,25.8199049 60.4082967,32.7519268 61.6665385,33.9407464 C62.9225824,35.1317738 64.5962088,37.7114131 61.561044,40.1889486 C58.522033,42.6664842 28.9703846,69.0495607 27.5022527,70.341588 C26.0374176,71.6325115 21.4253297,75.4009705 17.4451099,72.0304404 C13.4593956,68.6543913 3.50445055,59.9264459 1.93137363,58.3408011 C0.359945055,56.750741 -2.25983516,53.2819705 3.81928571,48.8169978" id="Fill-1"></path>
                <path d="M70.5163736,31.7586497 C72.3817582,30.2298519 75.1652747,28.0078519 75.579011,27.489606 C75.9889011,26.971912 76.6707692,25.9321087 74.4812088,23.9954475 C72.2965934,22.054371 61.768022,13.6437754 55.2031868,9.50111967 C48.6438462,5.35901585 41.6718681,1.7340541 40.1636264,0.959720765 C38.6564835,0.182627869 36.1965934,-0.464765574 34.0075824,0.441474863 C31.822967,1.34881913 27.8867033,3.09396667 26.6279121,3.54874262 C24.3048352,4.39040929 26.2191209,5.61951858 27.1751648,6.39440383 C29.9191209,8.61695574 51.1020879,19.1397208 62.5867033,28.9113328 C62.5867033,28.9113328 64.1125275,30.3474093 65.3218681,31.1107044 C66.3476923,31.7586497 68.4663736,33.4386716 70.5163736,31.7586497" id="Fill-4" opacity="0.600000024"></path>
                <path d="M75.3272527,36.3957087 C77.0234066,34.5975776 85.3091209,26.300676 86.1267033,25.1389 C86.9497802,23.9727087 88.7294505,23.4550148 90.0948352,24.7437306 C91.4607692,26.0401732 98.1602198,33.8072388 98.9821978,34.8431787 C99.8030769,35.876359 100.213516,37.3008454 98.2975824,39.7596158 C96.3843956,42.2161787 91.0503297,52.4420148 90.0948352,53.993441 C89.1365934,55.5426596 87.769011,57.6161951 85.3091209,54.6419383 C82.8486813,51.6632661 75.4635165,43.388441 74.5096703,42.2161787 C73.5486813,41.0560585 71.9085714,40.0179109 75.3272527,36.3957087" id="Fill-7" opacity="0.600000024"></path>
                <path d="M59.2167033,51.6417967 C60.7145055,49.9623268 63.0447253,47.3688896 66.0551648,45.302529 C69.0623077,43.2306492 71.6617582,45.8163596 73.0304396,47.2391902 C74.3930769,48.6658842 78.2210989,53.8439279 82.1886813,58.3696109 C86.1551648,62.901365 94.6293407,75.4529607 97.7749451,80.6326601 C100.918901,85.8051847 99.4150549,87.6193213 98.4546154,89.5559825 C97.502967,91.4987148 95.0386813,96.1607202 93.263956,99.0063814 C91.4848352,101.854802 90.3908791,100.686955 89.0210989,98.484824 C87.6551648,96.2876601 82.6227473,87.4791355 78.7683516,82.3110262 C75.4875824,77.9117311 61.8150549,61.3455235 60.0397802,59.5352503 C58.2628571,57.724977 57.0304396,54.0989115 59.2167033,51.6417967" id="Fill-10" opacity="0.600000024"></path>
            </g>
        </g>
    </g>
</svg>