<?xml version="1.0" encoding="UTF-8"?>
<svg width="130px" height="72px" viewBox="0 0 130 72" version="1.1" xmlns="http://www.w3.org/2000/svg" xmlns:xlink="http://www.w3.org/1999/xlink">
    <!-- Generator: Sketch 44.1 (41455) - http://www.bohemiancoding.com/sketch -->
    <title>Page 1</title>
    <desc>Created with Sketch.</desc>
    <defs>
        <polygon id="path-1" points="0.102507466 0.140542105 105.398543 0.140542105 105.398543 66.4394463 0.102507466 66.4394463"></polygon>
    </defs>
    <g id="Page-1" stroke="none" stroke-width="1" fill="none" fill-rule="evenodd">
        <g id="Desktop-HD" transform="translate(-418.000000, -1201.000000)">
            <g id="Page-1" transform="translate(418.000000, 1201.000000)">
                <g id="Group-3" transform="translate(0.179825, 0.222616)">
                    <mask id="mask-2" fill="white">
                        <use xlink:href="#path-1"></use>
                    </mask>
                    <g id="Clip-2"></g>
                    <path d="M6.48255886,66.4394463 L21.1228506,44.4821937 L33.7607445,56.6882937 L54.7505971,35.5924516 L58.2474566,32.0778095 L68.252924,42.1075042 L86.7878739,24.1344568 L81.284269,18.6177253 L105.398543,10.3573358 C93.1914164,-1.89888 70.9762864,-3.25382211 54.7505971,6.97234105 C53.4180805,7.81232526 52.1246917,8.72966211 50.8812995,9.72616737 C52.2975059,10.1848358 53.6800189,11.2891989 54.7505971,12.6768253 C56.1490511,14.4889832 57.0149332,16.7848674 56.7261851,18.75282 C56.7261851,18.75282 56.2157131,17.0042147 54.7505971,15.0863779 C52.3464155,11.9374358 47.3695859,8.32764632 37.8474184,11.2307305 C22.5234783,15.9013042 19.0345892,26.2796305 18.4900617,32.3636147 C19.061399,32.5230411 19.6233166,32.7333095 20.1475557,33.0089463 C23.3071198,34.6722095 24.6497805,37.1264305 24.6497805,37.1264305 C24.6497805,37.1264305 23.1487974,35.5430621 20.700416,34.8309095 C19.9374253,34.6086568 19.1128447,34.5251305 18.3393474,34.5145989 C15.5533083,34.6111989 1.31009054,35.8531989 0.170314307,51.13452 C-0.387980411,58.6206568 2.5708729,63.4172463 6.48255886,66.4394463" id="Fill-1" fill="#FEFEFE" mask="url(#mask-2)"></path>
                </g>
                <path d="M117.88585,35.3625726 C116.972507,38.7522884 112.459051,44.9818989 109.038998,45.8952411 C109.038998,45.8952411 117.096412,40.5110621 113.62129,25.3096358 C112.80794,21.7561358 111.468178,18.5770516 109.711053,15.7745621 L110.226597,8.87928316 L108.365856,13.8091516 L108.362595,13.8047937 L99.6313153,37.0508937 L94.1407531,31.5475989 L68.9587992,54.3382989 L59.2170817,44.3089674 L54.9304217,48.4645832 L35.1256322,67.6661937 L22.4873759,55.6580147 L7.84346124,67.5056779 L7.84454812,67.5064042 L4.28283795,70.3401253 L8.86005759,68.1317621 C13.3771365,70.7425042 18.4699001,71.4673674 20.8874865,71.4673674 L54.9304217,71.4673674 L112.515207,71.4673674 C113.781061,71.4673674 129.023123,69.7256621 129.734668,53.5734884 C130.445851,37.4213147 117.88585,35.3625726 117.88585,35.3625726" id="Fill-4" fill="#FEFEFE"></path>
            </g>
        </g>
    </g>
</svg>