<?xml version="1.0" encoding="UTF-8"?>
<svg width="100px" height="104px" viewBox="0 0 100 104" version="1.1" xmlns="http://www.w3.org/2000/svg" xmlns:xlink="http://www.w3.org/1999/xlink">
    <!-- Generator: Sketch 44.1 (41455) - http://www.bohemiancoding.com/sketch -->
    <title>logo</title>
    <desc>Created with Sketch.</desc>
    <defs></defs>
    <g id="Page-1" stroke="none" stroke-width="1" fill="none" fill-rule="evenodd">
        <g id="Desktop-HD" transform="translate(-72.000000, -100.000000)">
            <g id="logo" transform="translate(72.000000, 100.000000)">
                <polygon id="Fill-1" fill="#E04B4B" points="99.999871 0.000322981366 -0.000129032258 17.6544845 -0.000129032258 103.567528 99.999871 85.9133665"></polygon>
                <polygon id="Fill-2" fill="#FFFFFF" points="52.9032258 67.0972472 45.8064516 68.3504149 45.8064516 36.698241 52.9032258 35.4450733"></polygon>
                <polygon id="Fill-3" fill="#FFFFFF" points="20 53.5276373 12.9032258 54.780159 12.9032258 28.295687 20 27.0431652"></polygon>
                <polygon id="Fill-4" fill="#FFFFFF" points="40 69.3758161 32.9032258 70.6283379 32.9032258 44.1438658 40 42.8913441"></polygon>
                <polygon id="Fill-5" fill="#FFFFFF" points="67.0967742 59.4239205 60 60.6764422 60 19.9807901 67.0967742 18.7282683"></polygon>
                <polygon id="Fill-6" fill="#FFFFFF" points="87.0967742 75.2720994 80 76.5246211 80 16.450087 87.0967742 15.1975652"></polygon>
                <polygon id="Fill-7" fill="#FFFFFF" points="12.9032258 74.1592994 12.9032258 67.0537093 40 62.2703553 40 69.3759453"></polygon>
                <polygon id="Fill-8" fill="#FFFFFF" points="12.9032258 88.3704795 12.9032258 81.2648894 87.0967742 68.1667031 87.0967742 75.2722932"></polygon>
                <polygon id="Fill-9" fill="#FFFFFF" points="12.9032258 35.4015354 12.9032258 28.2959453 40 23.5125913 40 30.6181814"></polygon>
                <polygon id="Fill-10" fill="#FFFFFF" points="45.8064516 29.5929093 45.8064516 22.4873193 52.9032258 21.2341516 52.9032258 28.3397416"></polygon>
                <polygon id="Fill-11" fill="#FFFFFF" points="12.9032258 54.7804174 12.9032258 47.6748273 40 42.8914733 40 49.9970634"></polygon>
                <polygon id="Fill-12" fill="#FFFFFF" points="60 65.8444671 60 58.738877 87.0967742 53.955523 87.0967742 61.061113"></polygon>
                <polygon id="Fill-13" fill="#FFFFFF" points="60 27.0867031 60 19.981113 87.0967742 15.197759 87.0967742 22.3033491"></polygon>
            </g>
        </g>
    </g>
</svg>